<?xml version="1.0" encoding="utf-8"?>
<!-- Generator: Adobe Illustrator 16.0.0, SVG Export Plug-In . SVG Version: 6.00 Build 0)  -->
<!DOCTYPE svg PUBLIC "-//W3C//DTD SVG 1.1//EN" "http://www.w3.org/Graphics/SVG/1.1/DTD/svg11.dtd">
<svg version="1.1" id="Calque_1" xmlns="http://www.w3.org/2000/svg" xmlns:xlink="http://www.w3.org/1999/xlink" x="0px" y="0px"
	 width="500px" height="200px" viewBox="0 0 500 200" enable-background="new 0 0 500 200" xml:space="preserve">
<g>
	<path fill="#3B3838" d="M174.119,90.131h3.276v15.445h7.826v2.963h-11.102V90.131z"/>
	<path fill="#3B3838" d="M189.823,102.299c0-0.987,0.177-1.884,0.533-2.69c0.355-0.806,0.836-1.495,1.443-2.067
		c0.606-0.572,1.326-1.014,2.158-1.326s1.716-0.468,2.652-0.468s1.82,0.156,2.652,0.468s1.551,0.754,2.158,1.326
		c0.606,0.572,1.087,1.261,1.443,2.067c0.355,0.806,0.533,1.703,0.533,2.69c0,0.988-0.178,1.886-0.533,2.691
		c-0.355,0.807-0.836,1.495-1.443,2.067c-0.607,0.571-1.326,1.015-2.158,1.326s-1.716,0.468-2.652,0.468s-1.82-0.156-2.652-0.468
		s-1.551-0.755-2.158-1.326c-0.607-0.572-1.088-1.261-1.443-2.067C190,104.185,189.823,103.287,189.823,102.299z M192.943,102.299
		c0,0.486,0.082,0.954,0.247,1.404c0.164,0.451,0.407,0.85,0.728,1.196s0.706,0.624,1.157,0.832
		c0.451,0.208,0.962,0.312,1.534,0.312c0.572,0,1.083-0.104,1.534-0.312s0.836-0.485,1.157-0.832
		c0.32-0.347,0.563-0.745,0.728-1.196c0.165-0.45,0.247-0.918,0.247-1.404c0-0.484-0.083-0.952-0.247-1.403
		c-0.165-0.451-0.408-0.849-0.728-1.196c-0.321-0.347-0.707-0.624-1.157-0.832s-0.962-0.312-1.534-0.312
		c-0.572,0-1.083,0.104-1.534,0.312c-0.451,0.208-0.836,0.485-1.157,0.832s-0.563,0.745-0.728,1.196
		C193.025,101.347,192.943,101.814,192.943,102.299z"/>
	<path fill="#3B3838" d="M220.814,108.539h-2.964v-2.002h-0.052c-0.295,0.625-0.746,1.166-1.352,1.625
		c-0.607,0.459-1.43,0.689-2.47,0.689c-0.832,0-1.539-0.135-2.119-0.402c-0.581-0.27-1.053-0.633-1.417-1.093
		c-0.364-0.459-0.624-0.983-0.78-1.573c-0.156-0.589-0.234-1.204-0.234-1.846V96.06h3.12v6.317c0,0.348,0.017,0.732,0.052,1.158
		c0.035,0.424,0.125,0.822,0.273,1.195c0.147,0.373,0.373,0.686,0.676,0.936c0.303,0.252,0.732,0.377,1.287,0.377
		c0.52,0,0.958-0.086,1.313-0.26c0.355-0.173,0.65-0.406,0.884-0.701s0.403-0.633,0.507-1.015c0.104-0.381,0.156-0.78,0.156-1.196
		V96.06h3.12V108.539z"/>
	<path fill="#3B3838" d="M227.08,91.822c0-0.503,0.186-0.94,0.559-1.313c0.373-0.373,0.845-0.559,1.417-0.559
		s1.053,0.178,1.443,0.533c0.39,0.355,0.585,0.802,0.585,1.339s-0.195,0.984-0.585,1.339c-0.39,0.355-0.871,0.533-1.443,0.533
		s-1.044-0.186-1.417-0.559C227.266,92.762,227.08,92.325,227.08,91.822z M227.522,96.06h3.12v12.479h-3.12V96.06z"/>
	<path fill="#3B3838" d="M244.006,99.518c-0.607-0.849-1.421-1.274-2.444-1.274c-0.416,0-0.823,0.104-1.222,0.312
		s-0.598,0.546-0.598,1.014c0,0.382,0.165,0.659,0.494,0.832c0.329,0.174,0.745,0.321,1.248,0.442
		c0.502,0.121,1.044,0.246,1.625,0.377c0.581,0.13,1.122,0.329,1.625,0.598c0.502,0.27,0.918,0.637,1.248,1.105
		c0.329,0.468,0.494,1.109,0.494,1.924c0,0.746-0.161,1.374-0.481,1.885c-0.321,0.512-0.737,0.924-1.248,1.235
		c-0.512,0.312-1.088,0.537-1.729,0.676c-0.642,0.139-1.283,0.208-1.924,0.208c-0.971,0-1.864-0.139-2.678-0.416
		c-0.815-0.277-1.543-0.779-2.184-1.508l2.08-1.95c0.398,0.451,0.828,0.819,1.287,1.104c0.459,0.287,1.018,0.43,1.677,0.43
		c0.225,0,0.459-0.026,0.702-0.078c0.243-0.053,0.468-0.139,0.676-0.26s0.377-0.273,0.507-0.455s0.195-0.395,0.195-0.637
		c0-0.434-0.165-0.754-0.494-0.963c-0.329-0.207-0.745-0.377-1.248-0.506c-0.503-0.131-1.045-0.252-1.625-0.365
		c-0.581-0.111-1.123-0.294-1.625-0.545c-0.503-0.252-0.919-0.603-1.248-1.054c-0.33-0.45-0.494-1.074-0.494-1.872
		c0-0.693,0.143-1.295,0.429-1.807c0.286-0.511,0.663-0.932,1.131-1.261c0.468-0.329,1.005-0.572,1.612-0.728
		c0.606-0.156,1.222-0.234,1.846-0.234c0.832,0,1.655,0.143,2.47,0.429c0.815,0.286,1.473,0.776,1.976,1.469L244.006,99.518z"/>
	<path fill="#3B3838" d="M269.069,90.131h2.834l7.931,18.408h-3.744l-1.717-4.211h-7.981l-1.664,4.211h-3.666L269.069,90.131z
		 M273.229,101.52l-2.834-7.488l-2.886,7.488H273.229z"/>
	<path fill="#3B3838" d="M284.721,96.06h2.965v2.002h0.052c0.294-0.624,0.745-1.166,1.352-1.625
		c0.606-0.459,1.431-0.689,2.471-0.689c0.832,0,1.538,0.139,2.118,0.416c0.581,0.277,1.054,0.642,1.417,1.092
		c0.364,0.451,0.624,0.971,0.78,1.56c0.156,0.589,0.234,1.205,0.234,1.846v7.877h-3.12v-6.317c0-0.347-0.018-0.732-0.052-1.157
		c-0.035-0.424-0.126-0.823-0.273-1.196c-0.147-0.373-0.377-0.685-0.688-0.936c-0.313-0.251-0.737-0.377-1.274-0.377
		c-0.521,0-0.958,0.087-1.313,0.26c-0.355,0.174-0.649,0.408-0.884,0.702c-0.233,0.295-0.402,0.633-0.507,1.014
		c-0.104,0.381-0.156,0.78-0.156,1.196v6.812h-3.12V96.06z"/>
	<path fill="#3B3838" d="M309.421,99.518c-0.606-0.849-1.421-1.274-2.443-1.274c-0.416,0-0.824,0.104-1.223,0.312
		s-0.598,0.546-0.598,1.014c0,0.382,0.164,0.659,0.494,0.832c0.329,0.174,0.745,0.321,1.248,0.442
		c0.502,0.121,1.044,0.246,1.625,0.377c0.58,0.13,1.122,0.329,1.625,0.598c0.502,0.27,0.918,0.637,1.248,1.105
		c0.329,0.468,0.493,1.109,0.493,1.924c0,0.746-0.16,1.374-0.48,1.885c-0.321,0.512-0.737,0.924-1.248,1.235
		c-0.512,0.312-1.088,0.537-1.729,0.676c-0.641,0.139-1.282,0.208-1.924,0.208c-0.971,0-1.863-0.139-2.678-0.416
		s-1.543-0.779-2.184-1.508l2.08-1.95c0.398,0.451,0.827,0.819,1.286,1.104c0.459,0.287,1.019,0.43,1.678,0.43
		c0.225,0,0.459-0.026,0.702-0.078c0.242-0.053,0.468-0.139,0.676-0.26s0.377-0.273,0.507-0.455s0.195-0.395,0.195-0.637
		c0-0.434-0.165-0.754-0.494-0.963c-0.33-0.207-0.746-0.377-1.248-0.506c-0.503-0.131-1.045-0.252-1.625-0.365
		c-0.581-0.111-1.123-0.294-1.625-0.545c-0.503-0.252-0.919-0.603-1.248-1.054c-0.33-0.45-0.494-1.074-0.494-1.872
		c0-0.693,0.143-1.295,0.429-1.807s0.663-0.932,1.131-1.261c0.469-0.329,1.006-0.572,1.612-0.728
		c0.606-0.156,1.222-0.234,1.846-0.234c0.832,0,1.655,0.143,2.471,0.429c0.814,0.286,1.473,0.776,1.976,1.469L309.421,99.518z"/>
	<path fill="#3B3838" d="M325.229,106.824h-0.078c-0.451,0.711-1.023,1.226-1.716,1.547c-0.694,0.32-1.456,0.48-2.288,0.48
		c-0.572,0-1.131-0.078-1.678-0.234c-0.546-0.156-1.031-0.39-1.456-0.701c-0.425-0.313-0.767-0.703-1.026-1.17
		c-0.26-0.469-0.391-1.015-0.391-1.639c0-0.676,0.121-1.252,0.364-1.729s0.567-0.875,0.976-1.196
		c0.406-0.321,0.879-0.576,1.417-0.767c0.537-0.191,1.096-0.334,1.677-0.43c0.58-0.095,1.165-0.156,1.755-0.182
		c0.589-0.026,1.144-0.039,1.664-0.039h0.78v-0.338c0-0.78-0.27-1.365-0.807-1.755c-0.537-0.39-1.222-0.585-2.054-0.585
		c-0.659,0-1.274,0.117-1.846,0.351c-0.572,0.234-1.066,0.551-1.482,0.949l-1.638-1.638c0.693-0.71,1.503-1.222,2.431-1.534
		c0.927-0.312,1.885-0.468,2.873-0.468c0.884,0,1.629,0.1,2.236,0.299c0.606,0.2,1.108,0.455,1.508,0.767
		c0.398,0.312,0.706,0.672,0.923,1.079s0.373,0.819,0.468,1.235c0.096,0.416,0.152,0.819,0.169,1.209
		c0.018,0.39,0.026,0.732,0.026,1.027v7.176h-2.808V106.824z M325.046,102.949h-0.649c-0.434,0-0.919,0.018-1.456,0.053
		c-0.538,0.035-1.045,0.117-1.521,0.246c-0.477,0.131-0.88,0.321-1.209,0.572c-0.329,0.252-0.494,0.603-0.494,1.053
		c0,0.295,0.065,0.543,0.195,0.742s0.299,0.367,0.507,0.506s0.442,0.238,0.702,0.299c0.26,0.062,0.521,0.092,0.78,0.092
		c1.074,0,1.867-0.256,2.379-0.768c0.511-0.511,0.767-1.209,0.767-2.093V102.949z"/>
</g>
</svg>
